<svg xmlns="http://www.w3.org/2000/svg" >
  <symbols id="twitter" viewBox="0 0 24 24">
    <path d="M22,3.999c-0.78,0.463-2.345,1.094-3.265,1.276c-0.027,0.007-0.049,0.016-0.075,0.023c-0.813-0.802-1.927-1.299-3.16-1.299 c-2.485,0-4.5,2.015-4.5,4.5c0,0.131-0.011,0.372,0,0.5c-3.353,0-5.905-1.756-7.735-4c-0.199,0.5-0.286,1.29-0.286,2.032 c0,1.401,1.095,2.777,2.8,3.63c-0.314,0.081-0.66,0.139-1.02,0.139c-0.581,0-1.196-0.153-1.759-0.617c0,0.017,0,0.033,0,0.051 c0,1.958,2.078,3.291,3.926,3.662c-0.375,0.221-1.131,0.243-1.5,0.243c-0.26,0-1.18-0.119-1.426-0.165 c0.514,1.605,2.368,2.507,4.135,2.539c-1.382,1.084-2.341,1.486-5.171,1.486H2C3.788,19.145,6.065,20,8.347,20 C15.777,20,20,14.337,20,8.999c0-0.086-0.002-0.266-0.005-0.447C19.995,8.534,20,8.517,20,8.499c0-0.027-0.008-0.053-0.008-0.08 c-0.003-0.136-0.006-0.263-0.009-0.329c0.79-0.57,1.475-1.281,2.017-2.091c-0.725,0.322-1.503,0.538-2.32,0.636 C20.514,6.135,21.699,4.943,22,3.999z"></path>
  </symbols>
  <symbols id="facebook" viewBox="0 0 32 32">
   <path d="M12,27V15H8v-4h4V8.852C12,4.785,13.981,3,17.361,3c1.619,0,2.475,0.12,2.88,0.175V7h-2.305C16.501,7,16,7.757,16,9.291V11 h4.205l-0.571,4H16v12H12z"></path>
  </symbols>
  <symbols id="linkedin" viewBox="0 0 32 32">
    <path d="M 8.6425781 4 C 7.1835781 4 6 5.181625 6 6.640625 C 6 8.099625 7.182625 9.3085938 8.640625 9.3085938 C 10.098625 9.3085938 11.283203 8.099625 11.283203 6.640625 C 11.283203 5.182625 10.101578 4 8.6425781 4 z M 21.535156 11 C 19.316156 11 18.0465 12.160453 17.4375 13.314453 L 17.373047 13.314453 L 17.373047 11.310547 L 13 11.310547 L 13 26 L 17.556641 26 L 17.556641 18.728516 C 17.556641 16.812516 17.701266 14.960938 20.072266 14.960938 C 22.409266 14.960937 22.443359 17.145609 22.443359 18.849609 L 22.443359 26 L 26.994141 26 L 27 26 L 27 17.931641 C 27 13.983641 26.151156 11 21.535156 11 z M 6.3632812 11.310547 L 6.3632812 26 L 10.923828 26 L 10.923828 11.310547 L 6.3632812 11.310547 z"></path>
  </symbols>
  <symbols id="instagram" viewBox="0 0 24 24">
    <path d="M 8 3 C 5.243 3 3 5.243 3 8 L 3 16 C 3 18.757 5.243 21 8 21 L 16 21 C 18.757 21 21 18.757 21 16 L 21 8 C 21 5.243 18.757 3 16 3 L 8 3 z M 8 5 L 16 5 C 17.654 5 19 6.346 19 8 L 19 16 C 19 17.654 17.654 19 16 19 L 8 19 C 6.346 19 5 17.654 5 16 L 5 8 C 5 6.346 6.346 5 8 5 z M 17 6 A 1 1 0 0 0 16 7 A 1 1 0 0 0 17 8 A 1 1 0 0 0 18 7 A 1 1 0 0 0 17 6 z M 12 7 C 9.243 7 7 9.243 7 12 C 7 14.757 9.243 17 12 17 C 14.757 17 17 14.757 17 12 C 17 9.243 14.757 7 12 7 z M 12 9 C 13.654 9 15 10.346 15 12 C 15 13.654 13.654 15 12 15 C 10.346 15 9 13.654 9 12 C 9 10.346 10.346 9 12 9 z"></path>
  </symbols>
  <symbols id="youtube" viewBox="0 0 24 24">
    <path d="M21,5c0,0-3-1-9-1S3,5,3,5s-1,3-1,7s1,7,1,7s3,1,9,1s9-1,9-1s1-3,1-7S21,5,21,5z M10,15.464V8.536L16,12L10,15.464z"></path>
  </symbols>
</svg>